<svg width="16" height="16" viewBox="0 0 16 16" fill="none" xmlns="http://www.w3.org/2000/svg">
<path fill-rule="evenodd" clip-rule="evenodd" d="M14.25 5.75V1.75H12.75V4.2916C11.605 2.93303 9.83899 2.08334 7.90914 2.08334C4.73316 2.08334 1.98941 4.39036 1.75072 7.48075L1.72992 7.75H3.231L3.25287 7.5241C3.46541 5.32932 5.45509 3.58334 7.90914 3.58334C9.6452 3.58334 11.1528 4.45925 11.9587 5.75H9.12986V7.25H13.292L14.2535 6.27493V5.75H14.25ZM7.99997 14C9.10454 14 9.99997 13.1046 9.99997 12C9.99997 10.8954 9.10454 10 7.99997 10C6.8954 10 5.99997 10.8954 5.99997 12C5.99997 13.1046 6.8954 14 7.99997 14Z" fill="#63ebff"/>
</svg>
