<!DOCTYPE svg  PUBLIC '-//W3C//DTD SVG 1.1//EN'  'http://www.w3.org/Graphics/SVG/1.1/DTD/svg11.dtd'>
<svg style="enable-background:new 0 0 32 32" xmlns="http://www.w3.org/2000/svg" xml:space="preserve" height="32px" width="32px" version="1.1" y="0px" x="0px" xmlns:xlink="http://www.w3.org/1999/xlink" viewBox="0 0 32 32">
		<path d="m24 4c-0.38 0-0.74 0.062-1.1 0.11-1-2.5-4-4.1-7-4.1s-5.6 1.7-6.9 4.1c-0.4 0-0.7-0.1-1.1-0.1-4.4 0-8 3.6-8 8s3.6 8 8 8h16c4.4 0 8-3.6 8-8s-4-8-8-8zm0 12h-16c-2.2 0-4-1.8-4-4s1.9-3.9 4-3.9c0 0.9 0.2 1.8 0.5 2.9l3.7-1.4v-1.6c0-2.2 1.8-4 4-4 1.3 0 2.5 0.64 3.2 1.6-2 1.5-3 3.8-3 6.4h4c0-2.2 1.8-4 4-4s4 1.8 4 4-2 4-4 4z" fill="#ffffff"/>
			<polygon points="18 26 22 26 16 20 10 26 14 26 14 32 18 32" fill="#ffffff"/>
</svg>
