<?xml version="1.0" encoding="iso-8859-1"?>
<svg xmlns="http://www.w3.org/2000/svg" xmlns:xlink="http://www.w3.org/1999/xlink" version="1.1" viewBox="0 0 44 44" enable-background="new 0 0 44 44" width="512px" height="512px">
  <path d="m22,0c-12.2,0-22,9.8-22,22s9.8,22 22,22 22-9.8 22-22-9.8-22-22-22zm3.2,22.4l7.5,7.5c0.2,0.2 0.3,0.5 0.3,0.7s-0.1,0.5-0.3,0.7l-1.4,1.4c-0.2,0.2-0.5,0.3-0.7,0.3-0.3,0-0.5-0.1-0.7-0.3l-7.5-7.5c-0.2-0.2-0.5-0.2-0.7,0l-7.5,7.5c-0.2,0.2-0.5,0.3-0.7,0.3-0.3,0-0.5-0.1-0.7-0.3l-1.4-1.4c-0.2-0.2-0.3-0.5-0.3-0.7s0.1-0.5 0.3-0.7l7.5-7.5c0.2-0.2 0.2-0.5 0-0.7l-7.5-7.5c-0.2-0.2-0.3-0.5-0.3-0.7s0.1-0.5 0.3-0.7l1.4-1.4c0.2-0.2 0.5-0.3 0.7-0.3s0.5,0.1 0.7,0.3l7.5,7.5c0.2,0.2 0.5,0.2 0.7,0l7.5-7.5c0.2-0.2 0.5-0.3 0.7-0.3 0.3,0 0.5,0.1 0.7,0.3l1.4,1.4c0.2,0.2 0.3,0.5 0.3,0.7s-0.1,0.5-0.3,0.7l-7.5,7.5c-0.2,0.1-0.2,0.5 3.55271e-15,0.7z" fill="#7d7c7d"/>
</svg>
