<?xml version="1.0" encoding="UTF-8" standalone="no"?>
<!-- Generator: Adobe Illustrator 19.0.0, SVG Export Plug-In . SVG Version: 6.00 Build 0)  -->

<svg
   xmlns:dc="http://purl.org/dc/elements/1.1/"
   xmlns:cc="http://creativecommons.org/ns#"
   xmlns:rdf="http://www.w3.org/1999/02/22-rdf-syntax-ns#"
   xmlns:svg="http://www.w3.org/2000/svg"
   xmlns="http://www.w3.org/2000/svg"
   xmlns:sodipodi="http://sodipodi.sourceforge.net/DTD/sodipodi-0.dtd"
   xmlns:inkscape="http://www.inkscape.org/namespaces/inkscape"
   version="1.1"
   id="Capa_1"
   x="0px"
   y="0px"
   viewBox="0 0 67.671 67.671"
   style="enable-background:new 0 0 67.671 67.671;"
   xml:space="preserve"
   sodipodi:docname="download_black.svg"
   inkscape:version="0.92.4 5da689c313, 2019-01-14"><metadata
   id="metadata43"><rdf:RDF><cc:Work
       rdf:about=""><dc:format>image/svg+xml</dc:format><dc:type
         rdf:resource="http://purl.org/dc/dcmitype/StillImage" /><dc:title /></cc:Work></rdf:RDF></metadata><defs
   id="defs41">
	
	
</defs><sodipodi:namedview
   pagecolor="#ffffff"
   bordercolor="#666666"
   borderopacity="1"
   objecttolerance="10"
   gridtolerance="10"
   guidetolerance="10"
   inkscape:pageopacity="0"
   inkscape:pageshadow="2"
   inkscape:window-width="1920"
   inkscape:window-height="1044"
   id="namedview39"
   showgrid="false"
   inkscape:zoom="6.974923"
   inkscape:cx="-28.423796"
   inkscape:cy="32.283942"
   inkscape:window-x="0"
   inkscape:window-y="36"
   inkscape:window-maximized="1"
   inkscape:current-layer="Capa_1" />
<path
   inkscape:connector-curvature="0"
   id="path2"
   d="M 52.946,23.348 H 42.834 v 6 h 10.112 c 3.007,0 5.34,1.536 5.34,2.858 v 26.606 c 0,1.322 -2.333,2.858 -5.34,2.858 H 14.724 c -3.007,0 -5.34,-1.536 -5.34,-2.858 V 32.207 c 0,-1.322 2.333,-2.858 5.34,-2.858 h 10.11 v -6 h -10.11 c -6.359,0 -11.34,3.891 -11.34,8.858 v 26.606 c 0,4.968 4.981,8.858 11.34,8.858 h 38.223 c 6.358,0 11.34,-3.891 11.34,-8.858 V 32.207 C 64.286,27.239 59.305,23.348 52.946,23.348 Z"
   style="fill:#1a1a1a" /><path
   inkscape:connector-curvature="0"
   id="path4"
   d="m 24.957,34.75389 c 0.768,0 1.535,0.343782 2.121,1.031347 l 3.756,4.406986 V 24.906224 17.86631 4.3801818 c 0,-1.9441899 1.343,-3.51995726 3,-3.51995726 1.657,0 3,1.57576736 3,3.51995726 V 17.86631 24.906224 40.430407 l 3.959,-4.64517 c 0.586,-0.687565 1.354,-1.031347 2.121,-1.031347 0.767,0 1.535,0.343782 2.121,1.031347 1.172,1.373957 1.172,3.603263 0,4.977219 l -8.957,10.509418 c -0.586,0.687565 -1.353,1.029001 -2.12,1.029001 -0.008,0 -0.015,0 -0.023,0 -0.008,0 -0.015,0 -0.023,0 -0.767,0 -1.534,-0.341436 -2.12,-1.029001 L 22.835,40.762456 c -1.172,-1.373956 -1.172,-3.603262 0,-4.977219 0.587,-0.687565 1.354,-1.031347 2.122,-1.031347 z"
   style="stroke-width:1.08319855;fill:#1a1a1a" />
<g
   id="g8">
</g>
<g
   id="g10">
</g>
<g
   id="g12">
</g>
<g
   id="g14">
</g>
<g
   id="g16">
</g>
<g
   id="g18">
</g>
<g
   id="g20">
</g>
<g
   id="g22">
</g>
<g
   id="g24">
</g>
<g
   id="g26">
</g>
<g
   id="g28">
</g>
<g
   id="g30">
</g>
<g
   id="g32">
</g>
<g
   id="g34">
</g>
<g
   id="g36">
</g>
</svg>