<!DOCTYPE svg  PUBLIC '-//W3C//DTD SVG 1.1//EN'  'http://www.w3.org/Graphics/SVG/1.1/DTD/svg11.dtd'>
<svg style="enable-background:new 0 0 28 32" xmlns="http://www.w3.org/2000/svg" xml:space="preserve" height="32px" width="28px" version="1.1" y="0px" x="0px" xmlns:xlink="http://www.w3.org/1999/xlink" viewBox="0 0 28 32">
        <g fill="#67d2ef">
		<path d="m24 6.1l-2.8 2.8c2 2.1 3 4.1 3 7.1 0 5.5-4.5 10-10 10v-2l-4 4 4 4v-2c7.7 0 14-6.3 14-14 0-4-1-7.3-4-9.9z"/>
		<path d="m18 4l-4-4v2c-7.7 0-14 6.3-14 14 0 3.7 1.5 7.3 4.1 9.9l2.8-2.8c-1.9-2-2.9-4-2.9-7 0-6 4.5-10 10-10v2l4-4z"/>
	</g>
</svg>
