<?xml version="1.0" encoding="UTF-8" standalone="no"?>
<svg
   width="64"
   height="64"
   viewBox="0 0 16.933333 16.933334"
   version="1.1"
   id="svg1168"
   xmlns="http://www.w3.org/2000/svg"
   xmlns:svg="http://www.w3.org/2000/svg">
  <defs
     id="defs1165" />
  <g
     id="layer1">
    <g
       id="g1629"
       transform="matrix(0.44025942,0,0,0.44026086,-0.14284978,-4.447654)">
      <path
         id="path957"
         style="display:inline;fill:#adadae;stroke-width:0.226785;fill-opacity:1"
         d="m 19.53845,14.910071 c -1.579823,0 -3.087515,0.245524 -4.523384,0.736456 -1.435874,0.490931 -2.753312,1.18095 -3.952929,2.070528 -1.1996406,0.88957 -2.244401,1.936671 -3.1339726,3.139998 -0.8895772,1.203308 -1.5782811,2.522073 -2.065504,3.957948 -0.4872457,1.435867 -0.7304217,2.94455 -0.7304217,4.524373 0,1.572441 0.2455269,3.077773 0.7364583,4.517332 0.4909201,1.439555 1.1796239,2.76167 2.0655039,3.964991 0.8858856,1.20332 1.9296406,2.247069 3.1329661,3.132955 1.203326,0.885886 2.523109,1.574584 3.958967,2.065498 1.435868,0.49093 2.94356,0.736455 4.523383,0.736455 1.579816,0 3.088515,-0.245525 4.524389,-0.736455 1.435886,-0.490914 2.754634,-1.179612 3.95796,-2.065498 1.203326,-0.885886 2.250409,-1.929635 3.140009,-3.132955 0.889457,-1.203321 1.57962,-2.525436 2.070534,-3.964991 0.491069,-1.439559 0.736459,-2.944891 0.736459,-4.517332 0,-1.579823 -0.24539,-3.088506 -0.736459,-4.524373 -0.490914,-1.435875 -1.181077,-2.75464 -2.070534,-3.957948 -0.8896,-1.203327 -1.936683,-2.250428 -3.140009,-3.139998 C 26.82854,16.827477 25.507447,16.137458 24.067869,15.646527 22.62831,15.155595 21.118266,14.910071 19.53845,14.910071 Z m 5.093836,8.360585 c 0.280532,0 0.521103,0.09816 0.720361,0.293778 0.199417,0.195639 0.298809,0.430112 0.298809,0.703255 0,0.280531 -0.1032,0.52371 -0.309876,0.730419 l -4.352348,4.352333 4.341282,4.329194 c 0.206679,0.214086 0.309875,0.458271 0.309875,0.731425 0,0.287915 -0.09954,0.528755 -0.298809,0.724384 -0.199377,0.195628 -0.443514,0.293777 -0.731427,0.293777 -0.273155,0 -0.520027,-0.103169 -0.74149,-0.309876 l -4.319146,-4.330199 -4.318141,4.330199 c -0.206692,0.206704 -0.454581,0.309876 -0.742495,0.309876 -0.287914,0 -0.528745,-0.09815 -0.724386,-0.293777 -0.195622,-0.195629 -0.293777,-0.436469 -0.293777,-0.724384 0,-0.28053 0.0995,-0.521027 0.298808,-0.720357 l 4.341281,-4.340262 -4.341281,-4.3302 c -0.199314,-0.206708 -0.298808,-0.449899 -0.298808,-0.730419 0,-0.280537 0.09816,-0.51736 0.293777,-0.709292 0.195641,-0.191953 0.436472,-0.28774 0.724386,-0.28774 0.287914,0 0.52474,0.09947 0.709294,0.298808 l 4.351342,4.341267 4.363415,-4.352335 c 0.206708,-0.206708 0.446211,-0.309874 0.719354,-0.309874 z" />
    </g>
  </g>
</svg>
