<?xml version="1.0" encoding="UTF-8" standalone="no"?>
<svg
   width="64"
   height="64"
   viewBox="0 0 16.933333 16.933333"
   version="1.1"
   id="svg1369"
   xmlns="http://www.w3.org/2000/svg"
   xmlns:svg="http://www.w3.org/2000/svg">
  <defs
     id="defs1366" />
  <path
     id="path1239"
     style="fill:#858686;stroke-width:0.0998446;fill-opacity:1"
     d="m 8.4593537,2.1166667 c -0.695531,0 -1.359282,0.108163 -1.991437,0.3243 -0.632161,0.216138 -1.212315,0.520025 -1.740461,0.91167 -0.528153,0.391644 -0.988048,0.852257 -1.379693,1.382034 -0.391646,0.52977 -0.694823,1.110836 -0.909331,1.742995 -0.214512,0.632158 -0.321765,1.295904 -0.321765,1.991438 0,0.692285 0.108163,1.355316 0.3243,1.9890983 0.216132,0.63378 0.519115,1.215561 0.909135,1.745337 0.390022,0.529775 0.849916,0.989671 1.379693,1.379693 0.529778,0.39002 1.110845,0.693199 1.742996,0.909329 0.632157,0.216138 1.295904,0.324106 1.991439,0.324106 0.695531,0 1.359475,-0.107968 1.9916323,-0.324106 0.632165,-0.21613 1.213024,-0.519309 1.742801,-0.909329 0.529777,-0.390022 0.99057,-0.849918 1.382228,-1.379693 0.391591,-0.529776 0.695342,-1.111557 0.911475,-1.745337 0.216196,-0.6337823 0.324301,-1.2968133 0.324301,-1.9890983 0,-0.695534 -0.108105,-1.35928 -0.324301,-1.991438 -0.216133,-0.632159 -0.519884,-1.213225 -0.911475,-1.742995 -0.391658,-0.529777 -0.852451,-0.99039 -1.382228,-1.382034 -0.529777,-0.391645 -1.111548,-0.695532 -1.745336,-0.91167 -0.6337823,-0.216137 -1.2984383,-0.3243 -1.9939733,-0.3243 z m -2.891017,3.271286 h 4.38284 c 0.2860173,0 0.4998133,0.0715 0.6411923,0.214511 0.141382,0.143003 0.211976,0.355895 0.211976,0.638656 v 0.117006 l -3.8709413,-0.0049 c -0.386771,0 -0.678373,0.09913 -0.875008,0.297389 -0.196636,0.198259 -0.295049,0.48915 -0.295049,0.872669 v 2.5985023 h -0.19501 c -0.286016,0 -0.500528,-0.07151 -0.643532,-0.2145113 -0.143005,-0.143004 -0.21451,-0.354263 -0.21451,-0.633781 v -3.032399 c 0,-0.286008 0.07151,-0.49961 0.21451,-0.640996 0.143004,-0.141381 0.357516,-0.21217 0.643532,-0.21217 z m 1.399193,1.32119 h 4.3828423 c 0.286023,0 0.500554,0.0715 0.643531,0.214511 0.143045,0.143003 0.214511,0.354267 0.214511,0.63378 v 3.0470253 c 0,0.286017 -0.07147,0.49981 -0.214511,0.641193 -0.142977,0.141381 -0.357508,0.211974 -0.643531,0.211974 H 6.9675297 c -0.286015,0 -0.500527,-0.07059 -0.643531,-0.211974 -0.143012,-0.141383 -0.214511,-0.355176 -0.214511,-0.641193 V 7.5574337 c 0,-0.279513 0.0715,-0.490777 0.214511,-0.63378 0.143004,-0.14301 0.357516,-0.214511 0.643531,-0.214511 z" />
</svg>
