<!DOCTYPE svg  PUBLIC '-//W3C//DTD SVG 1.1//EN'  'http://www.w3.org/Graphics/SVG/1.1/DTD/svg11.dtd'>
<svg style="enable-background:new 0 0 31.998 32" xmlns="http://www.w3.org/2000/svg" xml:space="preserve" height="32px" width="32px" version="1.1" y="0px" x="0px" xmlns:xlink="http://www.w3.org/1999/xlink" viewBox="0 0 31.998 32">
	<g fill="#aaacaf">
		<path d="m12 24c0-2.2-1.8-4-4-4s-4 1.8-4 4v0.008c0 3-1.6 5.5-4 6.9l0.016 0.012c1.2 1 2.5 1 4 1 4.4 0 8-4 8-8z"/>
		<path d="m31 1.2c-1.6-1.6-4.1-1.6-5.7 0l-15 15c2.8 0.74 4.9 2.9 5.7 5.7l15-15c1-1.7 1-4.3 0-5.8z"/>
	</g>
</svg>
