<!DOCTYPE svg  PUBLIC '-//W3C//DTD SVG 1.1//EN'  'http://www.w3.org/Graphics/SVG/1.1/DTD/svg11.dtd'>
<svg style="enable-background:new 0 0 32 32" xmlns="http://www.w3.org/2000/svg" xml:space="preserve" height="32px" width="32px" version="1.1" y="0px" x="0px" xmlns:xlink="http://www.w3.org/1999/xlink" viewBox="0 0 32 32">
	<path d="m32 18v-4l-4.8-2c-0.13-0.38-0.27-0.74-0.44-1.1l1.9-4.8-3-3-4.8 2c-0.36-0.18-0.73-0.32-1.1-0.46l-2-4.7h-4l-2 4.7c-0.4 0.14-0.78 0.29-1.2 0.47l-4.8-1.9-3 2.8 1.9 4.7c-0.1 0-0.3 1-0.4 1l-4.7 2v4l4.7 2c0.14 0.41 0.3 0.8 0.49 1.2l-1.9 4.7 2.8 2.8 4.7-1.9c0.38 0.18 0.77 0.32 1.2 0.46l2 5h4l2-4.8c0.38-0.14 0.75-0.29 1.1-0.46l4.8 1.9 2.8-2.8-2-4.8c0.17-0.36 0.3-0.72 0.44-1.1l5-2zm-16 4c-3.3 0-6-2.7-6-6s2.7-6 6-6 6 2.7 6 6-3 6-6 6z" fill="#aaacaf"/>
</svg>
