<?xml version="1.0" encoding="UTF-8" standalone="no"?>
<svg
   xmlns:dc="http://purl.org/dc/elements/1.1/"
   xmlns:cc="http://creativecommons.org/ns#"
   xmlns:rdf="http://www.w3.org/1999/02/22-rdf-syntax-ns#"
   xmlns:svg="http://www.w3.org/2000/svg"
   xmlns="http://www.w3.org/2000/svg"
   id="svg4"
   version="1.1"
   fill="none"
   viewBox="0 0 16 16"
   height="16"
   width="16">
  <metadata
     id="metadata10">
    <rdf:RDF>
      <cc:Work
         rdf:about="">
        <dc:format>image/svg+xml</dc:format>
        <dc:type
           rdf:resource="http://purl.org/dc/dcmitype/StillImage" />
        <dc:title></dc:title>
      </cc:Work>
    </rdf:RDF>
  </metadata>
  <defs
     id="defs8" />
  <path
     style="clip-rule:evenodd;fill:#f48771;fill-rule:evenodd;stroke-width:1.15573037"
     id="path2"
     d="M 14.819289,3.6349653 C 14.701888,3.2761319 14.525844,2.9458956 14.291159,2.6442678 L 15.875432,1.091898 15.15534,0.38983051 13.56299,1.9343949 C 13.253627,1.7055608 12.914884,1.5339438 12.546879,1.4195325 12.184141,1.2999289 11.808059,1.2401214 11.418633,1.2401214 c -0.474755,0 -0.933486,0.088405 -1.37624,0.2652253 C 9.6049775,1.6821673 9.2182445,1.9343949 8.8821819,2.262018 l -1.80833,1.7707852 5.0648731,4.9379113 1.816383,-1.7629798 c 0.336051,-0.3276345 0.594732,-0.7046693 0.776159,-1.1311156 0.181311,-0.43165 0.272025,-0.8788881 0.272025,-1.341737 0,-0.379648 -0.06134,-0.7462755 -0.184003,-1.0999168 z M 13.779065,5.6943807 C 13.651012,5.9960085 13.467009,6.2638355 13.22694,6.4978618 L 12.138725,7.5587741 8.5221125,4.0328032 9.6103155,2.9719023 C 9.8503615,2.737876 10.125078,2.5584536 10.434464,2.4336464 c 0.31476,-0.1300222 0.642734,-0.1950219 0.984169,-0.1950219 0.352087,0 0.682753,0.067602 0.992234,0.2028159 0.309363,0.1300108 0.578695,0.3094332 0.808113,0.5382559 0.234686,0.223619 0.418688,0.4862539 0.552126,0.7878817 0.138704,0.3016278 0.207997,0.6240701 0.207997,0.9673041 0,0.3328267 -0.06672,0.6526672 -0.200038,0.9594986 z M 8.1323358,11.392308 9.8686565,9.6293275 9.1485175,8.9194542 7.4042024,10.690275 5.2277967,8.5684148 6.9721237,6.7976295 6.2439903,6.0955621 4.5076695,7.8585419 3.7875307,7.1564744 1.9711944,8.9194542 C 1.6351437,9.2470887 1.3764279,9.6267255 1.1950588,10.058376 c -0.1813691,0.426436 -0.27204784,0.871083 -0.27204784,1.333932 0,0.37966 0.058677,0.748935 0.17603164,1.107711 0.1226919,0.353641 0.3013805,0.681264 0.5361011,0.982869 l -1.58429624,1.552416 0.7201272,0.702033 1.59230244,-1.544541 c 0.3093867,0.228799 0.6454492,0.403052 1.0081757,0.522645 0.3680756,0.114457 0.7468028,0.171628 1.1362167,0.171628 0.4747551,0 0.930829,-0.08844 1.3682452,-0.265202 0.4427536,-0.176878 0.8321558,-0.429071 1.1682182,-0.756695 l 1.80833,-1.77083 z m -2.6484921,2.308996 c -0.3093867,0.124841 -0.6347859,0.187262 -0.9761742,0.187262 -0.3520632,0 -0.6854569,-0.06505 -1.0001929,-0.195022 C 3.1980899,13.563567 2.9260421,13.38669 2.6913333,13.163139 2.461962,12.934225 2.2805929,12.669023 2.1472377,12.367418 2.0138709,12.060564 1.9471992,11.735565 1.9471992,11.392308 c 0,-0.332872 0.064003,-0.650111 0.1920323,-0.951693 0.1333552,-0.306832 0.3200617,-0.5772615 0.560108,-0.8112875 L 3.7875307,8.5684148 7.4042024,12.094342 6.3159995,13.155265 C 6.0759532,13.389314 5.798568,13.571327 5.4838437,13.701304 Z" />
</svg>
