<?xml version="1.0" encoding="utf-8"?>
<!-- Generator: Adobe Illustrator 15.1.0, SVG Export Plug-In . SVG Version: 6.00 Build 0)  -->
<!DOCTYPE svg PUBLIC "-//W3C//DTD SVG 1.1//EN" "http://www.w3.org/Graphics/SVG/1.1/DTD/svg11.dtd">
<svg version="1.1" id="Layer_1" xmlns="http://www.w3.org/2000/svg" xmlns:xlink="http://www.w3.org/1999/xlink" x="0px" y="0px"
	 width="28px" height="32px" viewBox="0 0 28 32" enable-background="new 0 0 28 32" xml:space="preserve">
<g>
	<path fill="#ffffff" d="M20,0v3.9c0,1.6-0.62,3.1-1.8,4.2l-11,11c-1.9,2-2.8,4-3,7h-4l6,6l6-6h-4c0.1-1.399,0.68-2.8,1.7-3.8l11-11
		c2-1.9,3-4.5,3-7.1V0.3h-4L20,0z"/>
	<path fill="#ffffff" d="M24,26c-0.109-2.5-1.1-4.8-2.9-6.6L18.9,17.2l-3,3l2.199,2.2c1,1,1.601,2.399,1.7,3.8h-4l6,6l6-6h-4L24,26z
		"/>
</g>
</svg>
