<?xml version="1.0" encoding="UTF-8" standalone="no"?>
<!-- Generator: Adobe Illustrator 15.1.0, SVG Export Plug-In . SVG Version: 6.00 Build 0)  -->

<svg
   xmlns:dc="http://purl.org/dc/elements/1.1/"
   xmlns:cc="http://creativecommons.org/ns#"
   xmlns:rdf="http://www.w3.org/1999/02/22-rdf-syntax-ns#"
   xmlns:svg="http://www.w3.org/2000/svg"
   xmlns="http://www.w3.org/2000/svg"
   xmlns:sodipodi="http://sodipodi.sourceforge.net/DTD/sodipodi-0.dtd"
   xmlns:inkscape="http://www.inkscape.org/namespaces/inkscape"
   version="1.1"
   x="0px"
   y="0px"
   width="28px"
   height="32px"
   viewBox="0 0 28 32"
   style="enable-background:new 0 0 28 32;"
   xml:space="preserve"
   id="svg2"
   inkscape:version="0.91 r13725"
   sodipodi:docname="import_light.svg"><metadata
     id="metadata12"><rdf:RDF><cc:Work
         rdf:about=""><dc:format>image/svg+xml</dc:format><dc:type
           rdf:resource="http://purl.org/dc/dcmitype/StillImage" /><dc:title></dc:title></cc:Work></rdf:RDF></metadata><defs
     id="defs10" /><sodipodi:namedview
     pagecolor="#ffffff"
     bordercolor="#666666"
     borderopacity="1"
     objecttolerance="10"
     gridtolerance="10"
     guidetolerance="10"
     inkscape:pageopacity="0"
     inkscape:pageshadow="2"
     inkscape:window-width="1920"
     inkscape:window-height="1026"
     id="namedview8"
     showgrid="false"
     inkscape:zoom="14.75"
     inkscape:cx="4.1411135"
     inkscape:cy="12.994714"
     inkscape:window-x="1920"
     inkscape:window-y="0"
     inkscape:window-maximized="1"
     inkscape:current-layer="comment_x5F_alt2_x5F_stroke" /><g
     id="Layer_1" /><g
     id="comment_x5F_alt2_x5F_stroke"><path
       style="opacity:1;fill:#aaacaf;fill-opacity:1;stroke:none"
       d="M 11.111328 0 L 11.111328 4.3066406 A 14 14 0 0 0 0 18 A 14 14 0 0 0 14 32 A 14 14 0 0 0 28 18 A 14 14 0 0 0 16.888672 4.3183594 L 16.888672 0 L 11.111328 0 z M 16.888672 8.4296875 A 10 10 0 0 1 24 18 A 10 10 0 0 1 14 28 A 10 10 0 0 1 4 18 A 10 10 0 0 1 11.111328 8.4355469 L 11.111328 15.035156 L 5.3320312 15.035156 L 14 23.703125 L 22.667969 15.035156 L 16.888672 15.035156 L 16.888672 8.4296875 z "
       id="path4140" /><g
       id="move_x5F_vertical"
       transform="translate(34.338983,-2.2597261)"><g
         id="g6" /></g></g></svg>