<?xml version="1.0" encoding="UTF-8" standalone="no"?>
<svg
   xmlns:dc="http://purl.org/dc/elements/1.1/"
   xmlns:cc="http://creativecommons.org/ns#"
   xmlns:rdf="http://www.w3.org/1999/02/22-rdf-syntax-ns#"
   xmlns:svg="http://www.w3.org/2000/svg"
   xmlns="http://www.w3.org/2000/svg"
   xmlns:sodipodi="http://sodipodi.sourceforge.net/DTD/sodipodi-0.dtd"
   xmlns:inkscape="http://www.inkscape.org/namespaces/inkscape"
   style="enable-background:new 0 0 32 32"
   xml:space="preserve"
   height="32px"
   width="32px"
   version="1.1"
   y="0px"
   x="0px"
   viewBox="0 0 32 32"
   id="svg8"
   sodipodi:docname="plugin.svg"
   inkscape:version="0.92.4 5da689c313, 2019-01-14"><metadata
   id="metadata14"><rdf:RDF><cc:Work
       rdf:about=""><dc:format>image/svg+xml</dc:format><dc:type
         rdf:resource="http://purl.org/dc/dcmitype/StillImage" /><dc:title /></cc:Work></rdf:RDF></metadata><defs
   id="defs12">
		
		
	</defs><sodipodi:namedview
   pagecolor="#ffffff"
   bordercolor="#666666"
   borderopacity="1"
   objecttolerance="10"
   gridtolerance="10"
   guidetolerance="10"
   inkscape:pageopacity="0"
   inkscape:pageshadow="2"
   inkscape:window-width="1918"
   inkscape:window-height="1042"
   id="namedview10"
   showgrid="false"
   inkscape:zoom="10.429825"
   inkscape:cx="-16.624731"
   inkscape:cy="16.507785"
   inkscape:window-x="1920"
   inkscape:window-y="18"
   inkscape:window-maximized="1"
   inkscape:current-layer="svg8"
   inkscape:snap-bbox="true" />
	<path
   inkscape:connector-curvature="0"
   id="rect5115"
   d="M 13,0 C 10.784,0 9,1.784 9,4 V 6 H 4 C 1.784,6 0,7.784 0,10 v 5 h 2 c 2.216,0 4,1.784 4,4 0,2.216 -1.784,4 -4,4 H 0 v 5 c 0,2.216 1.784,4 4,4 h 5 v -2 c 0,-2.216 1.784,-4 4,-4 2.216,0 4,1.784 4,4 v 2 h 5 c 2.216,0 4,-1.784 4,-4 v -5 h 2 c 2.216,0 4,-1.784 4,-4 0,-2.216 -1.784,-4 -4,-4 H 26 V 10 C 26,7.784 24.216,6 22,6 H 17 V 4 C 17,1.784 15.216,0 13,0 Z"
   style="display:inline;fill:#aaacaf;fill-opacity:1;stroke:none;stroke-width:1.9352982;stroke-miterlimit:4;stroke-dasharray:none;stroke-opacity:1"
   inkscape:label="puzzle" />
</svg>