<!DOCTYPE svg  PUBLIC '-//W3C//DTD SVG 1.1//EN'  'http://www.w3.org/Graphics/SVG/1.1/DTD/svg11.dtd'>
<svg style="enable-background:new 0 0 32 32" xmlns="http://www.w3.org/2000/svg" xml:space="preserve" height="32px" width="32px" version="1.1" y="0px" x="0px" xmlns:xlink="http://www.w3.org/1999/xlink" viewBox="0 0 32 32">
	<g fill="#ffffff">
		<polygon points="16 22 18 20 18 26 22 26 16 32 10 26 14 26 14 20"/>
		<polygon points="16 10 14 12 14 6 10 6 16 0 22 6 18 6 18 12"/>
		<polygon points="10 16 12 18 6 18 6 22 0 16 6 10 6 14 12 14"/>
		<polygon points="22 16 20 14 26 14 26 10 32 16 26 22 26 18 20 18"/>
	</g>
</svg>
