<?xml version="1.0" encoding="UTF-8" standalone="no"?>
<!-- Created with Inkscape (http://www.inkscape.org/) -->

<svg
   xmlns:dc="http://purl.org/dc/elements/1.1/"
   xmlns:cc="http://creativecommons.org/ns#"
   xmlns:rdf="http://www.w3.org/1999/02/22-rdf-syntax-ns#"
   xmlns:svg="http://www.w3.org/2000/svg"
   xmlns="http://www.w3.org/2000/svg"
   xmlns:xlink="http://www.w3.org/1999/xlink"
   xmlns:sodipodi="http://sodipodi.sourceforge.net/DTD/sodipodi-0.dtd"
   xmlns:inkscape="http://www.inkscape.org/namespaces/inkscape"
   height="60.0000000"
   id="svg1"
   inkscape:version="0.92.4 5da689c313, 2019-01-14"
   sodipodi:docname="rename.svg"
   sodipodi:version="0.32"
   version="1.0"
   width="60.0000000"
   x="0"
   y="0">
  <metadata
     id="metadata2">
    <rdf:RDF>
      <cc:Work
         rdf:about="">
        <dc:title>Part of the Flat Icon Collection (Wed Aug 25 23:29:46 2004)</dc:title>
        <dc:description />
        <dc:subject>
          <rdf:Bag>
            <rdf:li>hash</rdf:li>
            <rdf:li />
            <rdf:li>action</rdf:li>
            <rdf:li>computer</rdf:li>
            <rdf:li>icons</rdf:li>
            <rdf:li>theme</rdf:li>
          </rdf:Bag>
        </dc:subject>
        <dc:publisher>
          <cc:Agent
             rdf:about="http://www.openclipart.org">
            <dc:title>Danny Allen</dc:title>
          </cc:Agent>
        </dc:publisher>
        <dc:creator>
          <cc:Agent>
            <dc:title>Danny Allen</dc:title>
          </cc:Agent>
        </dc:creator>
        <dc:rights>
          <cc:Agent>
            <dc:title>Danny Allen</dc:title>
          </cc:Agent>
        </dc:rights>
        <dc:date />
        <dc:format>image/svg+xml</dc:format>
        <dc:type
           rdf:resource="http://purl.org/dc/dcmitype/StillImage" />
        <cc:license
           rdf:resource="http://web.resource.org/cc/PublicDomain" />
        <dc:language>en</dc:language>
      </cc:Work>
      <cc:License
         rdf:about="http://web.resource.org/cc/PublicDomain">
        <cc:permits
           rdf:resource="http://web.resource.org/cc/Reproduction" />
        <cc:permits
           rdf:resource="http://web.resource.org/cc/Distribution" />
        <cc:permits
           rdf:resource="http://web.resource.org/cc/DerivativeWorks" />
      </cc:License>
    </rdf:RDF>
  </metadata>
  <sodipodi:namedview
     bordercolor="#666666"
     borderopacity="1.0"
     id="base"
     inkscape:cx="85.381225"
     inkscape:cy="-5.5666582"
     inkscape:pageopacity="0.0"
     inkscape:pageshadow="2"
     inkscape:window-height="1044"
     inkscape:window-width="1920"
     inkscape:window-x="0"
     inkscape:window-y="36"
     inkscape:zoom="6.9465338"
     pagecolor="#ffffff"
     showgrid="false"
     inkscape:window-maximized="1"
     inkscape:current-layer="svg1" />
  <defs
     id="defs3">
    <linearGradient
       id="linearGradient772">
      <stop
         id="stop773"
         offset="0"
         style="stop-color:#000;stop-opacity:1;" />
      <stop
         id="stop774"
         offset="1"
         style="stop-color:#fff;stop-opacity:1;" />
    </linearGradient>
    <linearGradient
       id="linearGradient775"
       xlink:href="#linearGradient772" />
  </defs>
  <g
     id="g15"
     transform="matrix(1.1498728,0,0,1.3623405,-5.1593925,-10.810511)">
    <path
       transform="matrix(1.150661,0,0,1.150661,-1.880879,-3.851635)"
       style="fill:none;fill-opacity:0.75;fill-rule:evenodd;stroke:#333333;stroke-width:4.34532833;stroke-linecap:round;stroke-linejoin:round;stroke-dasharray:none"
       sodipodi:stroke-cmyk="(0.0000000 0.0000000 0.0000000 0.80000001)"
       sodipodi:nodetypes="cccccc"
       id="path862"
       d="m 38.710354,12.794888 h 9.735871 m -4.636129,0 v 33.008494 m -5.099742,0.89212 h 9.967677"
       inkscape:connector-curvature="0" />
    <path
       transform="scale(4.132782)"
       style="font-weight:900;font-size:12px;font-family:'VAG Rounded Black SSi';fill:#333333;fill-opacity:1;stroke-width:1.00000003pt"
       id="path837"
       d="m 1.3728005,9.8524771 1.875,-5.0976563 c 0.1679687,-0.4492187 0.3066406,-0.78125 0.4160156,-0.9960937 0.109375,-0.21875 0.2597656,-0.4023438 0.4511719,-0.5507813 0.1914062,-0.1523437 0.4414062,-0.2285156 0.75,-0.2285156 0.3164062,0 0.5722656,0.076172 0.7675781,0.2285156 0.1992187,0.1523438 0.3554687,0.34375 0.46875,0.5742188 0.1171875,0.2265625 0.2539062,0.5507812 0.4101562,0.9726562 L 8.380613,9.8524771 c 0.1171875,0.3085939 0.1933593,0.5468749 0.2285156,0.7148439 0.039063,0.164062 0.058594,0.330078 0.058594,0.498047 0,0.242187 -0.085937,0.4375 -0.2578125,0.585937 -0.1679687,0.144531 -0.3925781,0.216797 -0.6738281,0.216797 -0.1953125,0 -0.359375,-0.03906 -0.4921875,-0.117187 C 7.1110817,11.67279 7.0036598,11.563415 6.9216286,11.42279 6.8435036,11.282165 6.7731911,11.11029 6.7106911,10.907165 L 6.4763161,10.139586 H 3.2829567 l -0.2402344,0.767579 c -0.1015625,0.316406 -0.2246093,0.55664 -0.3691406,0.720703 -0.140625,0.160156 -0.3574219,0.240234 -0.6503906,0.240234 -0.2773438,0 -0.5039063,-0.07227 -0.6796875,-0.216797 -0.171875,-0.148437 -0.2578125,-0.34375 -0.2578125,-0.585937 0,-0.144532 0.015625,-0.294922 0.046875,-0.451172 0.035156,-0.160156 0.1152344,-0.414063 0.2402344,-0.7617189 z M 5.896238,8.3173208 4.9235817,5.1591177 H 4.9001442 L 3.8571755,8.3173208 Z"
       inkscape:connector-curvature="0" />
  </g>
</svg>
