<svg width="16" height="16" xmlns="http://www.w3.org/2000/svg" xmlns:svg="http://www.w3.org/2000/svg">
 <g class="layer">
  <title>Layer 1</title>
  <path clip-rule="evenodd" d="m1.731978,6.075001l0,-4l1.518314,0l0,2.5416c1.158979,-1.35857 2.94652,-2.20826 4.899932,-2.20826c3.214756,0 5.992004,2.30702 6.233608,5.39741l0.021054,0.26925l-1.519407,0l-0.022147,-0.2259c-0.215125,-2.19478 -2.229097,-3.94076 -4.713108,-3.94076c-1.757256,0 -3.283232,0.87591 -4.099072,2.16666l2.863448,0l0,1.5l-4.212925,0l-0.973239,-0.97507l0,-0.52493l0.003543,0zm6.326306,8.25c-1.118056,0 -2.024418,-0.8954 -2.024418,-2c0,-1.1046 0.906362,-2 2.024418,-2c1.118056,0 2.024418,0.8954 2.024418,2c0,1.1046 -0.906362,2 -2.024418,2z" fill="#75BEFF" fill-rule="evenodd" id="svg_4"/>
 </g>
</svg>
