<?xml version="1.0" encoding="UTF-8" standalone="no"?>
<svg
   xmlns:dc="http://purl.org/dc/elements/1.1/"
   xmlns:cc="http://creativecommons.org/ns#"
   xmlns:rdf="http://www.w3.org/1999/02/22-rdf-syntax-ns#"
   xmlns:svg="http://www.w3.org/2000/svg"
   xmlns="http://www.w3.org/2000/svg"
   xmlns:sodipodi="http://sodipodi.sourceforge.net/DTD/sodipodi-0.dtd"
   xmlns:inkscape="http://www.inkscape.org/namespaces/inkscape"
   viewBox="0 0 24 24"
   enable-background="new 0 0 24 24"
   version="1.1"
   id="svg4"
   sodipodi:docname="save_black.svg"
   inkscape:version="0.92.4 5da689c313, 2019-01-14">
  <metadata
     id="metadata10">
    <rdf:RDF>
      <cc:Work
         rdf:about="">
        <dc:format>image/svg+xml</dc:format>
        <dc:type
           rdf:resource="http://purl.org/dc/dcmitype/StillImage" />
      </cc:Work>
    </rdf:RDF>
  </metadata>
  <defs
     id="defs8" />
  <sodipodi:namedview
     pagecolor="#ffffff"
     bordercolor="#666666"
     borderopacity="1"
     objecttolerance="10"
     gridtolerance="10"
     guidetolerance="10"
     inkscape:pageopacity="0"
     inkscape:pageshadow="2"
     inkscape:window-width="1920"
     inkscape:window-height="1044"
     id="namedview6"
     showgrid="false"
     inkscape:zoom="6.9532167"
     inkscape:cx="18.045111"
     inkscape:cy="6.6268597"
     inkscape:window-x="0"
     inkscape:window-y="36"
     inkscape:window-maximized="1"
     inkscape:current-layer="svg4" />
  <path
     d="M 2.6666667,0 C 1.2,0 0,1.2 0,2.6666666 V 21.333333 C 0,22.8 1.2,24 2.6666667,24 H 21.333333 C 22.8,24 24,22.8 24,21.333333 V 4 L 20.000001,0 Z m 4,1.3333333 H 17.333334 V 8 H 6.6666667 Z m 6.6666663,1.3333333 v 4 H 16 v -4 z M 5.3333334,12 H 18.666667 c 0.8,0 1.333334,0.533333 1.333334,1.333334 V 20 c 0,0.8 -0.533334,1.333333 -1.333334,1.333333 H 5.3333334 C 4.5333334,21.333333 4,20.8 4,20 V 13.333334 C 4,12.533333 4.5333334,12 5.3333334,12 Z"
     id="path2"
     style="fill:#1a1a1a;stroke-width:1.33333337"
     inkscape:connector-curvature="0" />
</svg>
