<?xml version="1.0" encoding="UTF-8" standalone="no"?>
<!-- Generator: Adobe Illustrator 16.0.0, SVG Export Plug-In . SVG Version: 6.00 Build 0)  -->

<svg
   xmlns:dc="http://purl.org/dc/elements/1.1/"
   xmlns:cc="http://creativecommons.org/ns#"
   xmlns:rdf="http://www.w3.org/1999/02/22-rdf-syntax-ns#"
   xmlns:svg="http://www.w3.org/2000/svg"
   xmlns="http://www.w3.org/2000/svg"
   xmlns:sodipodi="http://sodipodi.sourceforge.net/DTD/sodipodi-0.dtd"
   xmlns:inkscape="http://www.inkscape.org/namespaces/inkscape"
   version="1.1"
   id="Capa_1"
   x="0px"
   y="0px"
   width="900.5px"
   height="900.5px"
   viewBox="0 0 900.5 900.5"
   style="enable-background:new 0 0 900.5 900.5;"
   xml:space="preserve"
   sodipodi:docname="trash_bin.svg"
   inkscape:version="0.92.4 5da689c313, 2019-01-14"><metadata
   id="metadata43"><rdf:RDF><cc:Work
       rdf:about=""><dc:format>image/svg+xml</dc:format><dc:type
         rdf:resource="http://purl.org/dc/dcmitype/StillImage" /></cc:Work></rdf:RDF></metadata><defs
   id="defs41" /><sodipodi:namedview
   pagecolor="#ffffff"
   bordercolor="#666666"
   borderopacity="1"
   objecttolerance="10"
   gridtolerance="10"
   guidetolerance="10"
   inkscape:pageopacity="0"
   inkscape:pageshadow="2"
   inkscape:window-width="911"
   inkscape:window-height="480"
   id="namedview39"
   showgrid="false"
   inkscape:zoom="0.26207662"
   inkscape:cx="450.25"
   inkscape:cy="450.25"
   inkscape:window-x="0"
   inkscape:window-y="36"
   inkscape:window-maximized="0"
   inkscape:current-layer="Capa_1" />
<g
   id="g6"
   style="fill:#1a1a1a">
	<path
   d="M176.415,880.5c0,11.046,8.954,20,20,20h507.67c11.046,0,20-8.954,20-20V232.487h-547.67V880.5L176.415,880.5z    M562.75,342.766h75v436.029h-75V342.766z M412.75,342.766h75v436.029h-75V342.766z M262.75,342.766h75v436.029h-75V342.766z"
   id="path2"
   style="fill:#1a1a1a" />
	<path
   d="M618.825,91.911V20c0-11.046-8.954-20-20-20h-297.15c-11.046,0-20,8.954-20,20v71.911v12.5v12.5H141.874   c-11.046,0-20,8.954-20,20v50.576c0,11.045,8.954,20,20,20h34.541h547.67h34.541c11.046,0,20-8.955,20-20v-50.576   c0-11.046-8.954-20-20-20H618.825v-12.5V91.911z M543.825,112.799h-187.15v-8.389v-12.5V75h187.15v16.911v12.5V112.799z"
   id="path4"
   style="fill:#1a1a1a" />
</g>
<g
   id="g8">
</g>
<g
   id="g10">
</g>
<g
   id="g12">
</g>
<g
   id="g14">
</g>
<g
   id="g16">
</g>
<g
   id="g18">
</g>
<g
   id="g20">
</g>
<g
   id="g22">
</g>
<g
   id="g24">
</g>
<g
   id="g26">
</g>
<g
   id="g28">
</g>
<g
   id="g30">
</g>
<g
   id="g32">
</g>
<g
   id="g34">
</g>
<g
   id="g36">
</g>
</svg>