<!DOCTYPE svg  PUBLIC '-//W3C//DTD SVG 1.1//EN'  'http://www.w3.org/Graphics/SVG/1.1/DTD/svg11.dtd'>
<svg style="enable-background:new 0 0 24 32" xmlns="http://www.w3.org/2000/svg" xml:space="preserve" height="32px" width="24px" version="1.1" y="0px" x="0px" xmlns:xlink="http://www.w3.org/1999/xlink" viewBox="0 0 24 32">
	<g fill="#4d4d4f">
		<path d="m14 0c-5.5 0-10 4.5-10 10h4c0-3.3 2.7-6 6-6s6 2.7 6 6v2h-20v14c0 3.3 2.7 6 6 6h12c3.3 0 6-2.7 6-6v-16c0-5.5-4-10-10-10zm4 28h-12c-1.1 0-2-0.9-2-2v-10h16v10c0 1-1 2-2 2z"/>
		<path d="m14 22c0 1.1-0.9 2-2 2s-2-0.89-2-2c0-1.1 0.9-2 2-2s2 1 2 2z"/>
	</g>
</svg>
