<?xml version="1.0" encoding="UTF-8" standalone="no"?>
<svg
   width="1024px"
   height="1024px"
   viewBox="0 0 1024 1024"
   version="1.1"
   id="svg891"
   xmlns:xlink="http://www.w3.org/1999/xlink"
   xmlns="http://www.w3.org/2000/svg"
   xmlns:svg="http://www.w3.org/2000/svg"
   xmlns:rdf="http://www.w3.org/1999/02/22-rdf-syntax-ns#"
   xmlns:cc="http://creativecommons.org/ns#"
   xmlns:dc="http://purl.org/dc/elements/1.1/">
  <title
     id="title824">macOS-icon</title>
  <defs
     id="defs862">
    <path
       d="M824,256.627066 C824,246.845101 824,237.062137 823.943901,227.279173 C823.894902,219.038203 823.799902,210.799233 823.575904,202.562263 C823.091908,184.609328 822.032915,166.502394 818.839939,148.749458 C815.601963,130.740524 810.314002,113.979585 801.981064,97.6166446 C793.789124,81.5337032 783.088204,66.8167567 770.320298,54.0578032 C757.555393,41.2988496 742.834502,30.6048886 726.745621,22.4179184 C710.365742,14.0829487 693.586866,8.79696797 675.558,5.55997976 C657.803131,2.37199136 639.691265,1.31499521 621.738398,0.829996978 C613.495459,0.60699779 605.25252,0.512998132 597.007581,0.461998318 C587.219653,0.401998536 577.431726,0.406998518 567.643798,0.406998518 L453.99664,0 L368.997269,0 L257.361095,0.406998518 C247.554168,0.406998518 237.74724,0.401998536 227.940313,0.461998318 C219.678374,0.512998132 211.420435,0.60699779 203.161496,0.829996978 C185.166629,1.31499521 167.013764,2.37299136 149.216896,5.56497974 C131.164029,8.80096796 114.360154,14.0849487 97.9582749,22.4139184 C81.8353943,30.6018886 67.0825035,41.2968496 54.2905981,54.0578032 C41.5006928,66.8157567 30.7797722,81.5297032 22.5728329,97.6096446 C14.2168948,113.980585 8.91893398,130.751524 5.67295801,148.770458 C2.47698167,166.516394 1.4179895,184.617328 0.930993109,202.562263 C0.708994752,210.800233 0.612995463,219.039203 0.562995833,227.279173 C0.502996277,237.063137 0,249.216093 0,258.999057 L0,369.088656 L0,454.998343 L0.50799624,567.426934 C0.50799624,577.222898 0.503996269,587.018863 0.562995833,596.814827 C0.612995463,605.066797 0.708994752,613.316767 0.931993101,621.565737 C1.4179895,639.541672 2.47898165,657.674606 5.67795797,675.451541 C8.92293395,693.484475 14.2198947,710.269414 22.5688329,726.653354 C30.7767722,742.759296 41.4996928,757.495242 54.2905981,770.272196 C67.0815035,783.049149 81.8303943,793.75711 97.950275,801.95608 C114.362153,810.30205 131.174029,815.595031 149.237895,818.836019 C167.026764,822.029007 185.173629,823.088003 203.161496,823.573002 C211.420435,823.796001 219.679374,823.891 227.941313,823.941 C237.74824,824 247.554168,824 257.361095,824 L370.006261,824 L455.216631,824 L567.643798,824 C577.431726,824 587.219653,824 597.007581,823.941 C605.25252,823.891 613.495459,823.796001 621.738398,823.573002 C639.698265,823.087003 657.816131,822.027007 675.578999,818.832019 C693.596866,815.591031 710.367742,810.30005 726.738621,801.95908 C742.830502,793.76111 757.554393,783.051149 770.320298,770.272196 C783.086204,757.497242 793.786124,742.763296 801.978064,726.660354 C810.316002,710.268414 815.603963,693.475475 818.843939,675.430541 C822.033915,657.660606 823.091908,639.534672 823.576904,621.565737 C823.799902,613.315767 823.894902,605.065797 823.943901,596.814827 C824,587.018863 824,577.222898 824,567.426934 C824,567.426934 824,456.983336 824,454.998343 L824,368.998657 C824,367.532662 824,256.627066 824,256.627066"
       id="path-1" />
    <filter
       x="-0.014563107"
       y="-0.0024271845"
       width="1.0291262"
       height="1.0291262"
       filterUnits="objectBoundingBox"
       id="filter-3">
      <feOffset
         dx="0"
         dy="10"
         in="SourceAlpha"
         result="shadowOffsetOuter1"
         id="feOffset827" />
      <feGaussianBlur
         stdDeviation="5"
         in="shadowOffsetOuter1"
         result="shadowBlurOuter1"
         id="feGaussianBlur829" />
      <feColorMatrix
         values="0 0 0 0 0   0 0 0 0 0   0 0 0 0 0  0 0 0 0.3 0"
         type="matrix"
         in="shadowBlurOuter1"
         id="feColorMatrix831" />
    </filter>
    <linearGradient
       x1="412"
       y1="-2.0513465e-14"
       x2="412"
       y2="824"
       id="linearGradient-4"
       gradientUnits="userSpaceOnUse"
       gradientTransform="translate(100,100)">
      <stop
         stop-color="#3B3B3B"
         offset="0%"
         id="stop834" />
      <stop
         stop-color="#000000"
         offset="100%"
         id="stop836" />
    </linearGradient>
    <rect
       id="path-5"
       x="0"
       y="0"
       width="824"
       height="824" />
    <filter
       x="-0.011650485"
       y="-0.0067961165"
       width="1.023301"
       height="1.023301"
       filterUnits="objectBoundingBox"
       id="filter-6">
      <feMorphology
         radius="2"
         operator="erode"
         in="SourceAlpha"
         result="shadowSpreadOuter1"
         id="feMorphology840" />
      <feOffset
         dx="0"
         dy="4"
         in="shadowSpreadOuter1"
         result="shadowOffsetOuter1"
         id="feOffset842" />
      <feGaussianBlur
         stdDeviation="4"
         in="shadowOffsetOuter1"
         result="shadowBlurOuter1"
         id="feGaussianBlur844" />
      <feColorMatrix
         values="0 0 0 0 0   0 0 0 0 0   0 0 0 0 0  0 0 0 0.2 0"
         type="matrix"
         in="shadowBlurOuter1"
         id="feColorMatrix846" />
    </filter>
    <linearGradient
       x1="412"
       y1="55"
       x2="412"
       y2="769"
       id="linearGradient-7"
       gradientUnits="userSpaceOnUse">
      <stop
         stop-color="#F8F8F8"
         offset="0%"
         id="stop849" />
      <stop
         stop-color="#D9D9D9"
         offset="100%"
         id="stop851" />
    </linearGradient>
    <path
       d="M412,55 C609.165656,55 769,214.834344 769,412 C769,609.165656 609.165656,769 412,769 C307.206454,769 212.958714,723.848036 147.649953,651.937282 L210.703778,652.067386 C265.146065,697.765252 335.359158,725.285714 412,725.285714 C494.924161,725.285714 570.323426,693.067804 626.36325,640.466528 L490.708749,640.466731 L373.712413,419.005296 L490.162319,200.465262 L643.087549,200.463551 C585.811369,137.927805 503.485089,98.7142857 412,98.7142857 C238.977078,98.7142857 98.7142857,238.977078 98.7142857,412 C98.7142857,447.132325 104.497229,480.913971 115.163145,512.444966 L88.1134761,562.358188 C66.8635653,516.661156 55,465.71602 55,412 C55,214.834344 214.834344,55 412,55 Z M422.529,251.35 L329.131867,421.989858 L429.85,608.35 L117.475,608.35 L311.057176,251.35 L422.529,251.35 Z M679.75,331.675 L559.80001,420.494186 L559.800931,331.675 L438.775,421.292602 L559.800931,510.175 L559.80001,422.0823 L679.75,510.175 L679.75,331.675 Z"
       id="path-8" />
    <filter
       x="-0.060504202"
       y="-0.031092437"
       width="1.1210084"
       height="1.1210084"
       filterUnits="objectBoundingBox"
       id="filter-9">
      <feOffset
         dx="0"
         dy="21"
         in="SourceAlpha"
         result="shadowOffsetOuter1"
         id="feOffset855" />
      <feGaussianBlur
         stdDeviation="18"
         in="shadowOffsetOuter1"
         result="shadowBlurOuter1"
         id="feGaussianBlur857" />
      <feColorMatrix
         values="0 0 0 0 0   0 0 0 0 0   0 0 0 0 0  0 0 0 0.25 0"
         type="matrix"
         in="shadowBlurOuter1"
         id="feColorMatrix859" />
    </filter>
  </defs>
  <g
     id="Template---Icons---App"
     stroke="none"
     stroke-width="1"
     fill="none"
     fill-rule="evenodd">
    <g
       id="App-Icons---@2x"
       transform="translate(0,-590)">
      <g
         id="512x512@2x"
         transform="translate(0,590)">
        <rect
           id="Rectangle"
           fill-opacity="0"
           fill="#ffffff"
           x="0"
           y="0"
           width="1024"
           height="1024"
           style="display:inline" />
        <g
           id="Artwork"
           transform="translate(100,100)">
          <g
             id="g884"
             style="display:inline">
            <g
               id="g877"
               style="display:inline">
              <path
                 id="use873"
                 style="fill:#000000;fill-opacity:1;filter:url(#filter-6)"
                 d="m 468.99805,100 -111.63672,0.40625 c -9.80692,0 -19.61495,-0.003 -29.42188,0.0566 -8.26194,0.051 -16.51841,0.14419 -24.77734,0.36719 -17.99487,0.485 -36.14845,1.54238 -53.94531,4.73437 -18.05287,3.23599 -34.85594,8.52064 -51.25782,16.84961 -16.12288,8.18797 -30.87606,18.88358 -43.66796,31.64453 -12.78991,12.75796 -23.51182,27.47084 -31.71875,43.55079 -8.35594,16.37094 -13.65247,33.14121 -16.89844,51.16015 -3.19598,17.74593 -4.25519,35.84804 -4.74219,53.79297 -0.222,8.23797 -0.31914,16.47683 -0.36914,24.7168 C 100.5025,337.06327 100,349.21703 100,359 v 110.08789 85.91016 l 0.50781,112.42968 c 0,9.79597 -0.004,19.59075 0.0547,29.38672 0.05,8.25197 0.14614,16.50299 0.36914,24.75196 0.486,17.97593 1.54712,36.10783 4.74609,53.88476 3.24498,18.03293 8.54169,34.81919 16.89063,51.20313 8.20794,16.10595 18.93175,30.84022 31.72266,43.61718 12.7909,12.77695 27.54027,23.48658 43.66015,31.68555 16.41188,8.34597 33.22325,13.63792 51.28711,16.87891 17.78887,3.19299 35.93596,4.25133 53.92383,4.73633 8.25893,0.223 16.51736,0.31914 24.7793,0.36914 9.80693,0.059 19.613,0.0586 29.41992,0.0586 h 310.2832 c 9.78793,0 19.57535,4.1e-4 29.36328,-0.0586 8.24494,-0.05 16.48753,-0.14614 24.73047,-0.36914 17.95986,-0.486 36.07697,-1.54525 53.83984,-4.74024 18.01788,-3.24099 34.78928,-8.53208 51.16016,-16.87305 16.09188,-8.19797 30.81612,-18.90855 43.58203,-31.6875 12.7659,-12.77496 23.46627,-27.50837 31.65821,-43.61132 8.33794,-16.39194 13.62525,-33.18554 16.86523,-51.23047 3.18997,-17.76993 4.24743,-35.89435 4.73242,-53.86328 0.223,-8.24997 0.31819,-16.50099 0.36719,-24.75196 C 923.99946,687.01848 924,677.2237 924,667.42773 v -112.42968 -86 -112.3711 c 0,-9.78197 -5.4e-4,-19.56468 -0.0566,-29.34765 -0.049,-8.24097 -0.14319,-16.47983 -0.36719,-24.7168 -0.48399,-17.95293 -1.54336,-36.05957 -4.73633,-53.8125 -3.23798,-18.00894 -8.52643,-34.76987 -16.85937,-51.13281 -8.19194,-16.08294 -18.89226,-30.79964 -31.66016,-43.5586 -12.76491,-12.75895 -27.48534,-23.45365 -43.57422,-31.64062 -16.37988,-8.33497 -33.15863,-13.62043 -51.1875,-16.85742 -17.75487,-3.18799 -35.86744,-4.24547 -53.82031,-4.73047 -8.24294,-0.223 -16.48553,-0.31619 -24.73047,-0.36719 -9.78793,-0.06 -19.57535,-0.0566 -29.36328,-0.0566 L 553.99609,100 Z"
                 transform="translate(-100,-100)" />
              <path
                 id="use875"
                 style="fill:url(#linearGradient-4);fill-rule:evenodd"
                 d="m 468.99805,100 -111.63672,0.40625 c -9.80692,0 -19.61495,-0.003 -29.42188,0.0566 -8.26194,0.051 -16.51841,0.14419 -24.77734,0.36719 -17.99487,0.485 -36.14845,1.54238 -53.94531,4.73437 -18.05287,3.23599 -34.85594,8.52064 -51.25782,16.84961 -16.12288,8.18797 -30.87606,18.88358 -43.66796,31.64453 -12.78991,12.75796 -23.51182,27.47084 -31.71875,43.55079 -8.35594,16.37094 -13.65247,33.14121 -16.89844,51.16015 -3.19598,17.74593 -4.25519,35.84804 -4.74219,53.79297 -0.222,8.23797 -0.31914,16.47683 -0.36914,24.7168 C 100.5025,337.06327 100,349.21703 100,359 v 110.08789 85.91016 l 0.50781,112.42968 c 0,9.79597 -0.004,19.59075 0.0547,29.38672 0.05,8.25197 0.14614,16.50299 0.36914,24.75196 0.486,17.97593 1.54712,36.10783 4.74609,53.88476 3.24498,18.03293 8.54169,34.81919 16.89063,51.20313 8.20794,16.10595 18.93175,30.84022 31.72266,43.61718 12.7909,12.77695 27.54027,23.48658 43.66015,31.68555 16.41188,8.34597 33.22325,13.63792 51.28711,16.87891 17.78887,3.19299 35.93596,4.25133 53.92383,4.73633 8.25893,0.223 16.51736,0.31914 24.7793,0.36914 9.80693,0.059 19.613,0.0586 29.41992,0.0586 h 310.2832 c 9.78793,0 19.57535,4.1e-4 29.36328,-0.0586 8.24494,-0.05 16.48753,-0.14614 24.73047,-0.36914 17.95986,-0.486 36.07697,-1.54525 53.83984,-4.74024 18.01788,-3.24099 34.78928,-8.53208 51.16016,-16.87305 16.09188,-8.19797 30.81612,-18.90855 43.58203,-31.6875 12.7659,-12.77496 23.46627,-27.50837 31.65821,-43.61132 8.33794,-16.39194 13.62525,-33.18554 16.86523,-51.23047 3.18997,-17.76993 4.24743,-35.89435 4.73242,-53.86328 0.223,-8.24997 0.31819,-16.50099 0.36719,-24.75196 C 923.99946,687.01848 924,677.2237 924,667.42773 v -112.42968 -86 -112.3711 c 0,-9.78197 -5.4e-4,-19.56468 -0.0566,-29.34765 -0.049,-8.24097 -0.14319,-16.47983 -0.36719,-24.7168 -0.48399,-17.95293 -1.54336,-36.05957 -4.73633,-53.8125 -3.23798,-18.00894 -8.52643,-34.76987 -16.85937,-51.13281 -8.19194,-16.08294 -18.89226,-30.79964 -31.66016,-43.5586 -12.76491,-12.75895 -27.48534,-23.45365 -43.57422,-31.64062 -16.37988,-8.33497 -33.15863,-13.62043 -51.1875,-16.85742 -17.75487,-3.18799 -35.86744,-4.24547 -53.82031,-4.73047 -8.24294,-0.223 -16.48553,-0.31619 -24.73047,-0.36719 -9.78793,-0.06 -19.57535,-0.0566 -29.36328,-0.0566 L 553.99609,100 Z"
                 transform="translate(-100,-100)" />
            </g>
            <use
               fill="#000000"
               fill-opacity="1"
               filter="url(#filter-9)"
               xlink:href="#path-8"
               id="use879"
               x="0"
               y="0"
               width="100%"
               height="100%"
               style="display:inline;fill-rule:nonzero" />
            <use
               fill="url(#linearGradient-7)"
               xlink:href="#path-8"
               id="use881"
               x="0"
               y="0"
               width="100%"
               height="100%"
               style="fill:url(#linearGradient-7);fill-rule:nonzero" />
          </g>
          <use
             xlink:href="#path-1"
             id="use1070"
             x="0"
             y="0"
             width="100%"
             height="100%"
             style="display:none;fill:#c83737" />
        </g>
      </g>
    </g>
  </g>
  <metadata
     id="metadata897">
    <rdf:RDF>
      <cc:Work
         rdf:about="">
        <dc:title>macOS-icon</dc:title>
      </cc:Work>
    </rdf:RDF>
  </metadata>
</svg>
