<!DOCTYPE svg  PUBLIC '-//W3C//DTD SVG 1.1//EN'  'http://www.w3.org/Graphics/SVG/1.1/DTD/svg11.dtd'>
<svg style="enable-background:new 0 0 32 32" xmlns="http://www.w3.org/2000/svg" xml:space="preserve" height="32px" width="32px" version="1.1" y="0px" x="0px" xmlns:xlink="http://www.w3.org/1999/xlink" viewBox="0 0 32 32">
	<g fill="#039be5">
		<path d="m21 14l5.7-9.7c-3-2.6-7-4.3-11-4.3-1 0-2 0.12-2.9 0.29l8 14z"/>
		<path d="m20 20h11c1-1 1-3 1-4 0-3.9-1.4-7.4-3.7-10l-8 14z"/>
		<path d="m16 10l-5.4-9.2c-4.4 1.5-8 4.8-9.8 9.2h15z"/>
		<path d="m16 22l5.4 9.1c4.4-1.5 8-4.8 9.8-9.1h-15z"/>
		<path d="m12 12h-11c-0.77 1-1 3-1 4 0 3.9 1.4 7.4 3.8 10l8.2-14z"/>
		<path d="m11 18l-5.7 9.8c2.7 2 6.7 4 11 4 1 0 2.1-0.12 3-0.3l-8-14z"/>
	</g>
</svg>
